<svg style="fill:#5F9EA0" height="30pt" viewBox="0 0 368 368" width="30pt" xmlns="http://www.w3.org/2000/svg"><path class="icon" d="m328 288h-76.527344c50.007813-24.910156 84.527344-76.441406 84.527344-136 0-83.816406-68.183594-152-152-152s-152 68.183594-152 152c0 59.558594 34.519531 111.089844 84.527344 136h-76.527344c-22.054688 0-40 17.945312-40 40v32c0 4.414062 3.585938 8 8 8h352c4.414062 0 8-3.585938 8-8v-32c0-22.054688-17.945312-40-40-40zm-280-136c0-74.992188 61.007812-136 136-136s136 61.007812 136 136-61.007812 136-136 136-136-61.007812-136-136zm304 200h-336v-24c0-13.230469 10.769531-24 24-24h288c13.230469 0 24 10.769531 24 24zm0 0"/><path d="m272 152c0-48.519531-39.480469-88-88-88s-88 39.480469-88 88 39.480469 88 88 88 88-39.480469 88-88zm-160 0c0-39.695312 32.304688-72 72-72s72 32.304688 72 72-32.304688 72-72 72-72-32.304688-72-72zm0 0"/><path d="m224 152c0-22.054688-17.945312-40-40-40s-40 17.945312-40 40 17.945312 40 40 40 40-17.945312 40-40zm-64 0c0-13.230469 10.769531-24 24-24s24 10.769531 24 24-10.769531 24-24 24-24-10.769531-24-24zm0 0"/></svg>