<svg xmlns="http://www.w3.org/2000/svg" class="icon" style="fill:#5F9EA0" height="30px" version="1.1" viewBox="1 -19 599.99998 599" width="30px">
<g id="surface1">
<path d="M 581.851562 402.960938 C 593.925781 370.152344 600.066406 335.460938 600 300.5 C 600 134.816406 465.683594 0.5 300 0.5 C 134.316406 0.5 0 134.816406 0 300.5 C -0.0664062 335.460938 6.078125 370.152344 18.148438 402.960938 C 7.144531 407.691406 0.0117188 418.515625 0 430.5 L 0 530.5 C 0 547.066406 13.433594 560.5 30 560.5 L 570 560.5 C 586.566406 560.5 600 547.066406 600 530.5 L 600 430.5 C 599.988281 418.515625 592.855469 407.691406 581.851562 402.960938 Z M 300 20.5 C 454.566406 20.675781 579.824219 145.933594 580 300.5 C 580.0625 334.703125 573.746094 368.621094 561.363281 400.5 L 548.75 400.5 L 541.421875 397.199219 C 580.308594 299.9375 557.03125 188.839844 482.367188 115.363281 C 407.710938 41.890625 296.25 20.398438 199.625 60.835938 C 103 101.277344 40.074219 195.753906 40 300.5 C 39.925781 333.628906 46.234375 366.457031 58.578125 397.199219 L 51.25 400.5 L 38.644531 400.5 C 26.261719 368.621094 19.9375 334.703125 20 300.5 C 20.175781 145.933594 145.433594 20.675781 300 20.5 Z M 150 390.5 L 150 190.5 C 150 184.976562 154.476562 180.5 160 180.5 L 440 180.5 C 445.523438 180.5 450 184.976562 450 190.5 L 450 390.5 C 450 396.023438 445.523438 400.5 440 400.5 L 160 400.5 C 154.476562 400.5 150 396.023438 150 390.5 Z M 440 160.5 L 160 160.5 C 143.433594 160.5 130 173.933594 130 190.5 L 130 390.5 C 130.035156 393.914062 130.65625 397.296875 131.839844 400.5 L 81.25 400.5 C 81.167969 399.722656 80.992188 398.957031 80.734375 398.21875 C 66.984375 367.480469 59.917969 334.171875 60 300.5 C 60 167.949219 167.453125 60.5 300 60.5 C 432.546875 60.5 540 167.949219 540 300.5 C 540.082031 334.171875 533.015625 367.480469 519.273438 398.21875 C 519.007812 398.957031 518.832031 399.722656 518.75 400.5 L 468.160156 400.5 C 469.34375 397.296875 469.964844 393.914062 470 390.5 L 470 190.5 C 470 173.933594 456.566406 160.5 440 160.5 Z M 580 530.5 C 580 536.019531 575.523438 540.5 570 540.5 L 30 540.5 C 24.476562 540.5 20 536.019531 20 530.5 L 20 430.5 C 20 424.976562 24.476562 420.5 30 420.5 L 570 420.5 C 575.523438 420.5 580 424.976562 580 430.5 Z M 580 530.5 " style=" stroke:none;fill-rule:nonzero;fill:rgb(0%,0%,0%);fill-opacity:1;" />
<path d="M 300 190.5 C 244.769531 190.5 200 235.269531 200 290.5 C 200 345.730469 244.769531 390.5 300 390.5 C 355.230469 390.5 400 345.730469 400 290.5 C 399.941406 235.292969 355.203125 190.5625 300 190.5 Z M 300 370.5 C 255.816406 370.5 220 334.683594 220 290.5 C 220 246.316406 255.816406 210.5 300 210.5 C 344.183594 210.5 380 246.316406 380 290.5 C 379.949219 334.664062 344.164062 370.449219 300 370.5 Z M 300 370.5 " style=" stroke:none;fill-rule:nonzero;fill:rgb(0%,0%,0%);fill-opacity:1;" />
<path d="M 300 230.5 C 266.867188 230.5 240 257.363281 240 290.5 C 240 323.640625 266.867188 350.5 300 350.5 C 333.140625 350.5 360 323.640625 360 290.5 C 359.964844 257.375 333.125 230.535156 300 230.5 Z M 300 330.5 C 277.910156 330.5 260 312.589844 260 290.5 C 260 268.410156 277.910156 250.5 300 250.5 C 322.089844 250.5 340 268.410156 340 290.5 C 340 312.589844 322.089844 330.5 300 330.5 Z M 300 330.5 " style=" stroke:none;fill-rule:nonzero;fill:rgb(0%,0%,0%);fill-opacity:1;" />
<path d="M 160 190.5 L 180 190.5 L 180 210.5 L 160 210.5 Z M 160 190.5 " style=" stroke:none;fill-rule:nonzero;fill:rgb(0%,0%,0%);fill-opacity:1;" />
<path d="M 420 500.5 L 460 500.5 L 460 520.5 L 420 520.5 Z M 420 500.5 " style=" stroke:none;fill-rule:nonzero;fill:rgb(0%,0%,0%);fill-opacity:1;" />
<path d="M 470 500.5 L 510 500.5 L 510 520.5 L 470 520.5 Z M 470 500.5 " style=" stroke:none;fill-rule:nonzero;fill:rgb(0%,0%,0%);fill-opacity:1;" />
<path d="M 520 500.5 L 560 500.5 L 560 520.5 L 520 520.5 Z M 520 500.5 " style=" stroke:none;fill-rule:nonzero;fill:rgb(0%,0%,0%);fill-opacity:1;" />
</g>
</svg>